<svg id="Icon_-_?????" data-name="Icon - ?????" xmlns="http://www.w3.org/2000/svg" width="20" height="20" viewBox="0 0 20 20">
  <rect id="???" width="20" height="20" fill="rgba(255,255,255,0)" opacity="0"/>
  <path id="??" d="M235.364,508.646a1.375,1.375,0,0,0,1.375,1.375h10.084a1.375,1.375,0,0,0,1.375-1.375v-7.791H235.364Zm9.167-5.614a.345.345,0,0,1,.344-.344h1.145a.345.345,0,0,1,.344.344v1.146a.345.345,0,0,1-.344.344h-1.145a.345.345,0,0,1-.344-.344Zm0,3.667a.345.345,0,0,1,.344-.344h1.145a.345.345,0,0,1,.344.344v1.146a.345.345,0,0,1-.344.344h-1.145a.345.345,0,0,1-.344-.344Zm-3.667-3.667a.345.345,0,0,1,.344-.344h1.145a.345.345,0,0,1,.344.344v1.146a.345.345,0,0,1-.344.344h-1.145a.345.345,0,0,1-.344-.344Zm0,3.667a.345.345,0,0,1,.344-.344h1.145a.345.345,0,0,1,.344.344v1.146a.345.345,0,0,1-.344.344h-1.145a.345.345,0,0,1-.344-.344Zm-3.667-3.667a.345.345,0,0,1,.344-.344h1.145a.345.345,0,0,1,.344.344v1.146a.345.345,0,0,1-.344.344h-1.145a.345.345,0,0,1-.344-.344Zm0,3.667a.345.345,0,0,1,.344-.344h1.145a.345.345,0,0,1,.344.344v1.146a.345.345,0,0,1-.344.344h-1.145a.345.345,0,0,1-.344-.344Zm9.625-9.51h-1.375v-1.375a.461.461,0,0,0-.459-.459h-.916a.461.461,0,0,0-.459.459v1.375h-3.667v-1.375a.46.46,0,0,0-.458-.459h-.916a.46.46,0,0,0-.459.459v1.375h-1.375a1.375,1.375,0,0,0-1.375,1.375v1.375H248.2v-1.375A1.375,1.375,0,0,0,246.823,497.188Z" transform="translate(-232.031 -492.687)" fill="#a6bcd0"/>
</svg>
