<svg xmlns="http://www.w3.org/2000/svg" width="12" height="9.6" viewBox="0 0 12 9.6">
  <path id="??_857" data-name="?? 857" d="M11.7,3.9H10.5V2.7a.3.3,0,0,0-.3-.3H9.6a.3.3,0,0,0-.3.3V3.9H8.1a.3.3,0,0,0-.3.3v.6a.3.3,0,0,0,.3.3H9.3V6.3a.3.3,0,0,0,.3.3h.6a.3.3,0,0,0,.3-.3V5.1h1.2a.3.3,0,0,0,.3-.3V4.2A.3.3,0,0,0,11.7,3.9Zm-7.5.9A2.4,2.4,0,1,0,1.8,2.4,2.4,2.4,0,0,0,4.2,4.8Zm1.68.6H5.567a3.264,3.264,0,0,1-2.734,0H2.52A2.521,2.521,0,0,0,0,7.92V8.7a.9.9,0,0,0,.9.9H7.5a.9.9,0,0,0,.9-.9V7.92A2.521,2.521,0,0,0,5.88,5.4Z" fill="#a6bcd0"/>
</svg>
