<svg xmlns="http://www.w3.org/2000/svg" width="12.998" height="11.552" viewBox="0 0 12.998 11.552">
  <path id="edit" d="M9.085,1.975l2.035,2.035a.221.221,0,0,1,0,.311L6.192,9.251,4.1,9.483A.439.439,0,0,1,3.613,9L3.845,6.9,8.774,1.975a.221.221,0,0,1,.311,0Zm3.656-.517-1.1-1.1a.883.883,0,0,0-1.246,0l-.8.8a.221.221,0,0,0,0,.311L11.631,3.5a.221.221,0,0,0,.311,0l.8-.8a.883.883,0,0,0,0-1.246ZM8.665,7.91v2.3H1.444V2.986H6.63a.277.277,0,0,0,.192-.079l.9-.9a.271.271,0,0,0-.192-.463H1.083A1.083,1.083,0,0,0,0,2.625v7.943a1.083,1.083,0,0,0,1.083,1.083H9.027a1.083,1.083,0,0,0,1.083-1.083V7.008a.271.271,0,0,0-.463-.192l-.9.9A.277.277,0,0,0,8.665,7.91Z" transform="translate(0 -0.1)" fill="#fff"/>
</svg>
