<svg xmlns="http://www.w3.org/2000/svg" width="30" height="30" viewBox="0 0 30 30">
  <g id="????_1622" data-name="???? 1622" transform="translate(-103 -736)">
    <circle id="???" cx="15" cy="15" r="15" transform="translate(103 736)" fill="#D47FA6"/>
    <g id="Icon_-_???" data-name="Icon - ???" transform="translate(105 738)">
      <rect id="???" width="26" height="26" fill="rgba(255,255,255,0)"/>
      <path id="??" d="M13.77,469.572c0-2.926-3.081-5.3-6.885-5.3S0,466.646,0,469.572a4.494,4.494,0,0,0,1.258,3.046,7.423,7.423,0,0,1-1.185,1.8.264.264,0,0,0-.049.289.258.258,0,0,0,.241.158,5.827,5.827,0,0,0,2.936-.827,8.424,8.424,0,0,0,3.685.827C10.689,474.868,13.77,472.5,13.77,469.572Zm4.038,7.283a4.483,4.483,0,0,0,1.258-3.045c0-2.214-1.771-4.111-4.28-4.9a5.015,5.015,0,0,1,.042.665c0,3.506-3.565,6.356-7.944,6.356a10.091,10.091,0,0,1-1.05-.062,7.156,7.156,0,0,0,6.345,3.24,8.382,8.382,0,0,0,3.685-.827,5.836,5.836,0,0,0,2.936.827.263.263,0,0,0,.242-.158.268.268,0,0,0-.05-.289A7.351,7.351,0,0,1,17.809,476.854Z" transform="translate(3.467 -459.076)" fill="#fff"/>
    </g>
  </g>
</svg>