<svg xmlns="http://www.w3.org/2000/svg" width="14" height="14" viewBox="0 0 14 14">
  <path id="pencil-alt" d="M13.638,3.959,12.377,5.219a.328.328,0,0,1-.465,0L8.877,2.184a.328.328,0,0,1,0-.465L10.138.459a1.315,1.315,0,0,1,1.857,0L13.638,2.1A1.31,1.31,0,0,1,13.638,3.959ZM7.794,2.8.614,9.983l-.58,3.322a.657.657,0,0,0,.76.76l3.322-.582L11.3,6.3a.328.328,0,0,0,0-.465L8.262,2.8a.332.332,0,0,0-.468,0ZM3.417,9.367a.381.381,0,0,1,0-.541L7.628,4.615a.383.383,0,1,1,.541.541L3.958,9.367a.381.381,0,0,1-.541,0Zm-.987,2.3H3.742v.993l-1.764.309-.85-.85.309-1.764h.993Z" transform="translate(-0.024 -0.075)" fill="#a6bcd0"/>
</svg>
