<svg id="?????_-_?" data-name="????? - ?" xmlns="http://www.w3.org/2000/svg" width="28" height="28" viewBox="0 0 28 28">
  <path id="systemRed_Dark" data-name="systemRed Dark" d="M0,0A14,14,0,0,1,14,14,14,14,0,0,1,0,28Z" transform="translate(28 14) rotate(90)" fill="#ff453a"/>
  <path id="systemRed_Light" data-name="systemRed Light" d="M14,0a14,14,0,0,0,0,28" transform="translate(28) rotate(90)" fill="#ff3b30"/>
  <g id="?????">
    <rect id="???" width="28" height="28" fill="rgba(255,255,255,0)"/>
    <path id="?????-2" data-name="?????" d="M15.333,2H12.444V.75A.71.71,0,0,0,11.778,0H4.222a.71.71,0,0,0-.667.75V2H.667A.71.71,0,0,0,0,2.75V4.5A4.186,4.186,0,0,0,1.719,7.647a6.1,6.1,0,0,0,3.056,1.3,6.6,6.6,0,0,0,1.892,2.3V13.5H5.333a1.683,1.683,0,0,0-1.778,1.75v.375A.357.357,0,0,0,3.889,16h8.222a.357.357,0,0,0,.333-.375V15.25a1.683,1.683,0,0,0-1.778-1.75H9.333V11.25a6.6,6.6,0,0,0,1.892-2.3,6.075,6.075,0,0,0,3.056-1.3A4.194,4.194,0,0,0,16,4.5V2.75A.71.71,0,0,0,15.333,2ZM2.758,6.025A2.324,2.324,0,0,1,1.778,4.5V4H3.561a12.529,12.529,0,0,0,.356,2.694A4.318,4.318,0,0,1,2.758,6.025ZM14.222,4.5a2.414,2.414,0,0,1-.981,1.525,4.333,4.333,0,0,1-1.161.669A12.529,12.529,0,0,0,12.436,4h1.786Z" transform="translate(6.364 6.364)" fill="#fff"/>
  </g>
</svg>
