<svg xmlns="http://www.w3.org/2000/svg" width="19.149" height="19.998" viewBox="0 0 19.149 19.998">
  <g id="????_1679" data-name="???? 1679" transform="translate(-338.004 -12.001)">
    <path id="??" d="M258.43,144.639l-1.719-.992a7.739,7.739,0,0,0,0-2.831l1.719-.992a.488.488,0,0,0,.221-.564,10.05,10.05,0,0,0-2.2-3.814.485.485,0,0,0-.6-.093l-1.717.992a7.6,7.6,0,0,0-2.453-1.415v-1.98a.483.483,0,0,0-.378-.473,10.158,10.158,0,0,0-4.4,0,.483.483,0,0,0-.378.473v1.983a7.875,7.875,0,0,0-2.453,1.415l-1.713-.991a.478.478,0,0,0-.6.092,10,10,0,0,0-2.206,3.815.485.485,0,0,0,.222.564l1.719.992a7.735,7.735,0,0,0,0,2.831l-1.719.991a.492.492,0,0,0-.222.566,10.053,10.053,0,0,0,2.206,3.814.487.487,0,0,0,.6.093l1.717-.992a7.617,7.617,0,0,0,2.451,1.415v1.984a.483.483,0,0,0,.38.471,10.159,10.159,0,0,0,4.4,0,.483.483,0,0,0,.378-.471v-1.984a7.84,7.84,0,0,0,2.451-1.415l1.719.992a.478.478,0,0,0,.6-.093,9.966,9.966,0,0,0,2.206-3.814.5.5,0,0,0-.231-.569Zm-9.331.818a3.226,3.226,0,1,1,3.226-3.226,3.226,3.226,0,0,1-3.226,3.226Z" transform="translate(98.473 -120.235)" fill="#a6bcd0"/>
  </g>
</svg>
